<svg width="20" height="18" viewBox="0 0 20 18" fill="none" xmlns="http://www.w3.org/2000/svg">
<path fill-rule="evenodd" clip-rule="evenodd" d="M8.2763 0.770997L8.38971 0.770997H8.38974C9.47786 0.770969 10.3751 0.770946 11.0853 0.867485C11.8309 0.968839 12.4893 1.18981 13.0166 1.7229C13.5438 2.25599 13.7623 2.92177 13.8626 3.67563C13.9581 4.39369 13.958 5.30094 13.958 6.40116V7.22828L13.958 7.22933L13.958 7.23038V9.72933H14.7219L14.7782 9.72921C14.9739 9.72862 15.2137 9.72789 15.431 9.78612C16.0062 9.94023 16.4554 10.3895 16.6096 10.9646C16.6678 11.182 16.6671 11.4218 16.6665 11.6175L16.6663 11.6738V12.646C16.6663 12.8761 16.8529 13.0627 17.083 13.0627C17.3131 13.0627 17.4997 12.8761 17.4997 12.646L17.4997 7.40525C17.4997 6.85572 17.4915 6.75008 17.4639 6.65913C17.4364 6.56819 17.3846 6.47573 17.0798 6.0185L16.4352 5.05162C16.301 4.85027 16.075 4.72933 15.833 4.72933C15.3728 4.72933 14.9997 4.35623 14.9997 3.896C14.9997 3.43576 15.3728 3.06266 15.833 3.06266C16.6323 3.06266 17.3786 3.46211 17.822 4.12712L18.4666 5.094L18.5135 5.1643C18.7454 5.51133 18.9508 5.81867 19.0591 6.17616C19.1673 6.53365 19.1669 6.90331 19.1664 7.32071L19.1663 7.40525L19.1663 12.646C19.1663 13.7966 18.2336 14.7293 17.083 14.7293C15.9324 14.7293 14.9997 13.7966 14.9997 12.646V11.6738C14.9997 11.5371 14.9995 11.4623 14.997 11.4079L14.9966 11.3991L14.9878 11.3987C14.9334 11.3962 14.8586 11.396 14.7219 11.396H13.958L13.958 15.5627H14.9997C15.4599 15.5627 15.833 15.9358 15.833 16.396C15.833 16.8562 15.4599 17.2293 14.9997 17.2293L1.66634 17.2293C1.2061 17.2293 0.833008 16.8562 0.833008 16.396C0.833008 15.9358 1.2061 15.5627 1.66634 15.5627H2.70801L2.70801 7.22982V7.22884L2.70801 6.40113V6.40111C2.70798 5.30091 2.70796 4.39368 2.80344 3.67564C2.90368 2.92177 3.12222 2.25599 3.64945 1.7229C4.17668 1.18981 4.83515 0.968839 5.58073 0.867485C6.29088 0.770946 7.18815 0.770969 8.27627 0.770997H8.2763ZM12.2707 3.89151C12.336 4.38288 12.3488 5.10865 12.3512 6.00351C12.352 6.28608 12.3524 6.42736 12.2645 6.51552C12.1765 6.60368 12.035 6.60368 11.7518 6.60368L4.91608 6.60368C4.63292 6.60368 4.49133 6.60368 4.40342 6.51552C4.3155 6.42736 4.31589 6.28608 4.31666 6.00351C4.31912 5.10865 4.33184 4.38288 4.39718 3.89151C4.47346 3.31784 4.60795 3.05214 4.7868 2.8713C4.96565 2.69046 5.22844 2.55447 5.7958 2.47734C6.38628 2.39707 7.1748 2.39535 8.33394 2.39535C9.49307 2.39535 10.2816 2.39707 10.8721 2.47734C11.4394 2.55447 11.7022 2.69046 11.8811 2.8713C12.0599 3.05214 12.1944 3.31784 12.2707 3.89151Z" fill="#B1D0DA"/>
</svg>
